<?xml version="1.0" encoding="UTF-8"?>
<svg version="1.1" xmlns="http://www.w3.org/2000/svg" width="64" height="64">
<path d="M0 0 C1.63630371 -0.00430527 1.63630371 -0.00430527 3.30566406 -0.00869751 C5.60872925 -0.01073617 7.91181183 -0.00522023 10.21484375 0.00732422 C13.73737352 0.02337995 17.25875586 0.00746802 20.78125 -0.01171875 C23.02083586 -0.00973628 25.26042101 -0.00589254 27.5 0 C29.0782959 -0.00910904 29.0782959 -0.00910904 30.68847656 -0.0184021 C40.04351683 0.07145452 40.04351683 0.07145452 43.75 3.3984375 C45.61963178 6.45263841 46.01246382 8.79092963 46.05639648 12.34716797 C46.07238388 13.32853729 46.08837128 14.30990662 46.10484314 15.3210144 C46.11020584 16.3752359 46.11556854 17.4294574 46.12109375 18.515625 C46.13012222 19.60553741 46.1391507 20.69544983 46.14845276 21.81838989 C46.16295485 24.12320204 46.17184189 26.42805535 46.17553711 28.73291016 C46.1874331 32.25363722 46.23662153 35.77261153 46.28710938 39.29296875 C46.29657381 41.53384562 46.30380874 43.77473325 46.30859375 46.015625 C46.32812607 47.06579803 46.34765839 48.11597107 46.36778259 49.19796753 C46.31755141 57.36088874 46.31755141 57.36088874 43.34008789 61.04736328 C39.95517733 64.11991382 38.47199376 64.52529604 34.02832031 64.59130859 C32.55603973 64.61540298 32.55603973 64.61540298 31.05401611 64.63998413 C26.55815287 64.68442983 22.06243787 64.72550731 17.56640625 64.74853516 C15.19586362 64.76508741 12.82537076 64.79236748 10.45507812 64.83056641 C7.03749695 64.88536588 3.62108653 64.90721574 0.203125 64.921875 C-0.85332214 64.94454437 -1.90976929 64.96721375 -2.99822998 64.99057007 C-11.21853125 64.96700355 -11.21853125 64.96700355 -14.90332031 61.99072266 C-17.99008849 58.58089073 -18.37570916 57.11703548 -18.39526367 52.64501953 C-18.40164352 51.65704376 -18.40802338 50.66906799 -18.41459656 49.65115356 C-18.41570938 48.58033539 -18.4168222 47.50951721 -18.41796875 46.40625 C-18.42129715 45.30876434 -18.42462555 44.21127869 -18.42805481 43.08053589 C-18.43312477 40.75535502 -18.43546311 38.43016686 -18.43530273 36.10498047 C-18.43748669 32.54512539 -18.45563495 28.98558135 -18.47460938 25.42578125 C-18.47754376 23.1692719 -18.47952825 20.91276107 -18.48046875 18.65625 C-18.48765427 17.58948029 -18.49483978 16.52271057 -18.50224304 15.4236145 C-18.49916641 14.42933441 -18.49608978 13.43505432 -18.49291992 12.41064453 C-18.49434494 11.53731476 -18.49576996 10.66398499 -18.49723816 9.76419067 C-18.12085775 6.16271123 -17.00834586 4.07913769 -14.328125 1.67333984 C-9.61094022 -0.28043069 -5.05661689 -0.02918396 0 0 Z " fill="#ACCEA7" transform="translate(18.25,-0.3984375)"/>
<path d="M0 0 C1.65 0.33 3.3 0.66 5 1 C5 12.55 5 24.1 5 36 C15.23 36 25.46 36 36 36 C36.495 38.475 36.495 38.475 37 41 C35.21169552 42.78830448 32.80418848 42.12848711 30.42358398 42.13894653 C29.64442627 42.1369223 28.86526855 42.13489807 28.0625 42.1328125 C26.86959351 42.13424759 26.86959351 42.13424759 25.65258789 42.13571167 C23.9679354 42.13639343 22.28328029 42.13453943 20.59863281 42.13037109 C18.01100803 42.12502275 15.42355684 42.13031619 12.8359375 42.13671875 C11.20312461 42.13605797 9.57031184 42.1347768 7.9375 42.1328125 C7.15834229 42.13483673 6.37918457 42.13686096 5.57641602 42.13894653 C0.11495105 42.11495105 0.11495105 42.11495105 -1 41 C-1.10110353 38.0546443 -1.13969279 35.1332244 -1.1328125 32.1875 C-1.13376923 31.30344482 -1.13472595 30.41938965 -1.13571167 29.50854492 C-1.13639351 27.63557871 -1.13453893 25.76261014 -1.13037109 23.88964844 C-1.12502289 21.01231612 -1.13031593 18.13513992 -1.13671875 15.2578125 C-1.13605797 13.44270799 -1.13477681 11.62760357 -1.1328125 9.8125 C-1.13483673 8.94584717 -1.13686096 8.07919434 -1.13894653 7.1862793 C-1.11495009 1.11495009 -1.11495009 1.11495009 0 0 Z " fill="#0E160F" transform="translate(14,11)"/>
<path d="M0 0 C1.67542976 0.28604898 3.34385343 0.61781233 5 1 C5 4.3 5 7.6 5 11 C10.94 11 16.88 11 23 11 C23 12.32 23 13.64 23 15 C17.06 15 11.12 15 5 15 C5 16.65 5 18.3 5 20 C11.27 20 17.54 20 24 20 C24.33 21.65 24.66 23.3 25 25 C23.28432208 26.71567792 21.02627265 26.13015825 18.6875 26.1328125 C17.61242187 26.13410156 16.53734375 26.13539062 15.4296875 26.13671875 C14.29789063 26.13285156 13.16609375 26.12898438 12 26.125 C10.86820313 26.12886719 9.73640625 26.13273437 8.5703125 26.13671875 C7.49523437 26.13542969 6.42015625 26.13414063 5.3125 26.1328125 C4.31863281 26.13168457 3.32476562 26.13055664 2.30078125 26.12939453 C0 26 0 26 -1 25 C-1.09946453 23.23140807 -1.13080217 21.45888549 -1.1328125 19.6875 C-1.13410156 18.61242187 -1.13539062 17.53734375 -1.13671875 16.4296875 C-1.13091797 14.73199219 -1.13091797 14.73199219 -1.125 13 C-1.12886719 11.86820313 -1.13273437 10.73640625 -1.13671875 9.5703125 C-1.13542969 8.49523437 -1.13414063 7.42015625 -1.1328125 6.3125 C-1.13168457 5.31863281 -1.13055664 4.32476562 -1.12939453 3.30078125 C-1 1 -1 1 0 0 Z " fill="#0F1710" transform="translate(26,11)"/>
</svg>
